<?xml version="1.0" encoding="utf-8"?>
<!-- Generator: Adobe Illustrator 16.0.0, SVG Export Plug-In . SVG Version: 6.00 Build 0)  -->
<!DOCTYPE svg PUBLIC "-//W3C//DTD SVG 1.1//EN" "http://www.w3.org/Graphics/SVG/1.1/DTD/svg11.dtd">
<svg version="1.1" id="Capa_1" xmlns="http://www.w3.org/2000/svg" xmlns:xlink="http://www.w3.org/1999/xlink" x="0px" y="0px"
	 width="150px" height="150px" viewBox="0 0 150 150" enable-background="new 0 0 150 150" xml:space="preserve">
<g>
	<g>
		<path fill="#FFFFFF" d="M75,150c-41.354,0-75-33.646-75-75S33.646,0,75,0c41.355,0,75,33.646,75,75S116.355,150,75,150z
			 M75,10.039C39.181,10.039,10.039,39.18,10.039,75c0,35.818,29.142,64.96,64.961,64.96s64.961-29.142,64.961-64.96
			C139.961,39.18,110.819,10.039,75,10.039z"/>
	</g>
	<g>
		<g>
			<polygon fill="#FFFFFF" points="105.694,78.606 96.156,100.112 118.111,100.112 			"/>
			<polygon fill="#FFFFFF" points="72.59,85.795 55.817,85.795 74.641,53.191 81.658,65.347 88.774,49.301 74.641,24.819 
				31.17,100.112 66.241,100.112 			"/>
		</g>
		<g>
			
				<rect x="80.413" y="49.25" transform="matrix(0.9142 0.4054 -0.4054 0.9142 39.4724 -30.1643)" fill="#FFFFFF" width="21.082" height="57.725"/>
			<path fill="#FFFFFF" d="M112.56,29.394c-5.321-2.36-11.55,0.041-13.909,5.361l-4.337,9.781l19.272,8.544l4.336-9.778
				C120.283,37.98,117.882,31.754,112.56,29.394z"/>
			<polygon fill="#FFFFFF" points="69.211,117.003 70.083,125.18 76.729,120.336 			"/>
			<polygon fill="#FFFFFF" points="79.076,117.9 87.595,111.689 68.323,103.145 69.44,113.627 			"/>
		</g>
	</g>
</g>
</svg>
