<?xml version="1.0" encoding="utf-8"?>
<!-- Generator: Adobe Illustrator 16.0.0, SVG Export Plug-In . SVG Version: 6.00 Build 0)  -->
<!DOCTYPE svg PUBLIC "-//W3C//DTD SVG 1.1//EN" "http://www.w3.org/Graphics/SVG/1.1/DTD/svg11.dtd">
<svg version="1.1" id="Capa_1" xmlns="http://www.w3.org/2000/svg" xmlns:xlink="http://www.w3.org/1999/xlink" x="0px" y="0px"
	 width="150px" height="150px" viewBox="0 0 150 150" enable-background="new 0 0 150 150" xml:space="preserve">
<g>
	<g>
		<path fill="#FFFFFF" d="M75.001,150C33.645,150,0,116.354,0,75S33.645,0,75.001,0C116.355,0,150,33.646,150,75
			S116.355,150,75.001,150z M75.001,10.039c-35.82,0-64.962,29.141-64.962,64.961c0,35.818,29.142,64.96,64.962,64.96
			c35.818,0,64.96-29.142,64.96-64.96C139.961,39.18,110.819,10.039,75.001,10.039z"/>
	</g>
	<path fill="#FFFFFF" d="M81.365,98.767L56.589,84.459l4.519-7.825l16.952,9.791l22.011-38.114l-0.008-0.029L72.092,32.129
		l-32.881,8.807c-2.86,0.768-4.559,3.708-3.793,6.567l19.041,71.096c0.768,2.861,3.71,4.561,6.57,3.794l49.76-13.328
		c2.862-0.768,4.561-3.708,3.794-6.569l-11.208-41.843L81.365,98.767z M74.82,36.984l19.672,11.36L82.62,51.525
		c-2.012,0.538-4.08-0.656-4.62-2.668L74.82,36.984z"/>
</g>
</svg>
