<?xml version="1.0" encoding="utf-8"?>
<!-- Generator: Adobe Illustrator 16.0.0, SVG Export Plug-In . SVG Version: 6.00 Build 0)  -->
<!DOCTYPE svg PUBLIC "-//W3C//DTD SVG 1.1//EN" "http://www.w3.org/Graphics/SVG/1.1/DTD/svg11.dtd">
<svg version="1.1" id="Capa_1" xmlns="http://www.w3.org/2000/svg" xmlns:xlink="http://www.w3.org/1999/xlink" x="0px" y="0px"
	 width="150px" height="150px" viewBox="0 0 150 150" enable-background="new 0 0 150 150" xml:space="preserve">
<g>
	<g>
		<path fill="#FFFFFF" d="M75,150c-41.355,0-75-33.646-75-75S33.645,0,75,0s75,33.646,75,75S116.355,150,75,150z M75,10.039
			C39.18,10.039,10.038,39.18,10.038,75c0,35.818,29.142,64.96,64.962,64.96c35.819,0,64.961-29.142,64.961-64.96
			C139.961,39.18,110.819,10.039,75,10.039z"/>
	</g>
	<path fill="#FFFFFF" d="M110.86,92.298c0,24.188-29.148,26.462-34.522,30.597c-5.374-4.135-34.522-6.409-34.522-30.597
		c0-17.744,7.637-22.796,5.41-33.989c-1.445-7.271-4.61-9.602-4.61-9.602l10.01-14.825c0,0,18.192,8.03,23.713,0.325
		c5.521,7.705,23.713-0.325,23.713-0.325l10.012,14.825c0,0-3.166,2.33-4.612,9.602C103.224,69.502,110.86,74.554,110.86,92.298z
		 M76.334,95.015L63.675,82.355l4.259-4.26l8.4,8.399l15.458-15.458c-3.83-4.196-9.325-6.846-15.454-6.846
		c-11.563,0-20.938,9.375-20.938,20.938c0,11.565,9.375,20.939,20.938,20.939c11.564,0,20.939-9.374,20.939-20.939
		c0-3.228-0.752-6.272-2.057-9.001L76.334,95.015z"/>
</g>
</svg>
