<?xml version="1.0" encoding="utf-8"?>
<!-- Generator: Adobe Illustrator 16.0.0, SVG Export Plug-In . SVG Version: 6.00 Build 0)  -->
<!DOCTYPE svg PUBLIC "-//W3C//DTD SVG 1.1//EN" "http://www.w3.org/Graphics/SVG/1.1/DTD/svg11.dtd">
<svg version="1.1" id="Capa_1" xmlns="http://www.w3.org/2000/svg" xmlns:xlink="http://www.w3.org/1999/xlink" x="0px" y="0px"
	 width="381.728px" height="97.486px" viewBox="0 0 381.728 97.486" enable-background="new 0 0 381.728 97.486"
	 xml:space="preserve">
<g>
	<g>
		<path fill="#E97F1C" d="M336.791,72.961c0.708,3.459,2.438,6.449,5.18,8.99c2.745,2.535,5.79,3.807,9.144,3.807
			c2.33,0,4.871-0.609,7.61-1.826c3.355-1.426,5.03-3.1,5.03-5.029l17.974-0.152c-2.538,5.99-6.855,10.664-12.946,14.014
			c-5.691,3.148-11.936,4.723-18.736,4.723c-8.733,0-15.97-2.719-21.71-8.148c-5.737-5.434-8.604-12.516-8.604-21.25
			c0-9.039,2.868-16.221,8.604-21.553c5.74-5.33,13.178-7.998,22.319-7.998c9.95,0,17.716,3.303,23.305,9.902
			c5.179,6.09,7.769,14.268,7.769,24.521H336.791z M364.667,62.453c-0.711-3.66-2.236-6.65-4.566-8.992
			c-2.646-2.535-5.692-3.803-9.144-3.803c-3.554,0-6.524,1.215-8.91,3.65c-2.387,2.441-3.985,5.484-4.795,9.145H364.667z"/>
		<rect x="299.321" fill="#E97F1C" width="17.063" height="95.654"/>
		<path fill="#E97F1C" d="M276.765,95.66v-5.637c-1.527,2.029-4.114,3.654-7.769,4.871c-3.253,1.119-6.347,1.68-9.294,1.68
			c-8.123,0-14.646-2.795-19.57-8.381c-4.927-5.582-7.39-12.492-7.39-20.715c0-8.121,2.411-14.926,7.234-20.408
			c4.822-5.484,11.246-8.23,19.268-8.23c9.038,0,14.878,2.439,17.521,7.311V0h16.603v95.66H276.765z M276.765,63.826
			c0-3.049-1.448-5.969-4.345-8.762c-2.89-2.793-5.862-4.191-8.909-4.191c-4.367,0-7.818,1.781-10.359,5.332
			c-2.233,3.152-3.348,7.008-3.348,11.572c0,4.475,1.115,8.283,3.348,11.432c2.541,3.656,5.992,5.479,10.359,5.479
			c2.642,0,5.51-1.24,8.607-3.73c3.096-2.482,4.647-5.049,4.647-7.689V63.826z"/>
		<path fill="#E97F1C" d="M200.605,97.182c-8.632,0-15.764-2.738-21.4-8.227c-5.636-5.482-8.457-12.535-8.457-21.178
			c0-8.625,2.821-15.686,8.457-21.166c5.637-5.488,12.768-8.227,21.4-8.227c8.628,0,15.79,2.738,21.479,8.227
			c5.683,5.48,8.53,12.541,8.53,21.166c0,8.643-2.847,15.695-8.53,21.178C216.395,94.443,209.233,97.182,200.605,97.182
			 M200.605,52.092c-4.113,0-7.274,1.559-9.48,4.67c-2.21,3.115-3.312,6.813-3.312,11.096c0,4.285,1.021,7.912,3.08,10.871
			c2.364,3.365,5.599,5.045,9.712,5.045c4.109,0,7.345-1.68,9.711-5.045c2.155-2.959,3.236-6.586,3.236-10.871
			c0-4.283-1.027-7.91-3.083-10.863C208.104,53.727,204.815,52.092,200.605,52.092"/>
		<path fill="#E97F1C" d="M138.916,97.182c-8.631,0-15.766-2.738-21.402-8.227c-5.636-5.482-8.452-12.535-8.452-21.178
			c0-8.625,2.816-15.686,8.452-21.166c5.636-5.488,12.771-8.227,21.402-8.227c8.628,0,15.789,2.738,21.479,8.227
			c5.685,5.48,8.53,12.541,8.53,21.166c0,8.643-2.845,15.695-8.53,21.178C154.705,94.443,147.544,97.182,138.916,97.182
			 M138.916,52.092c-4.11,0-7.271,1.559-9.482,4.67c-2.208,3.115-3.315,6.813-3.315,11.096c0,4.285,1.027,7.912,3.083,10.871
			c2.362,3.365,5.604,5.045,9.714,5.045c4.107,0,7.344-1.68,9.71-5.045c2.158-2.959,3.239-6.586,3.239-10.871
			c0-4.283-1.03-7.91-3.083-10.863C146.418,53.727,143.127,52.092,138.916,52.092"/>
		<path fill="#E97F1C" d="M89.565,95.834V62.326c0-7.006-2.894-10.508-8.68-10.508c-5.79,0-8.682,3.502-8.682,10.508v33.508H55.148
			V62.326c0-7.006-2.845-10.508-8.535-10.508c-5.787,0-8.679,3.502-8.679,10.508v33.508H20.874V60.346
			c0-7.307,2.539-12.842,7.615-16.598c4.467-3.35,10.511-5.029,18.125-5.029c7.718,0,13.405,1.98,17.061,5.941
			c3.146-3.961,8.882-5.941,17.211-5.941c7.618,0,13.655,1.68,18.125,5.029c5.074,3.756,7.615,9.291,7.615,16.598v35.488H89.565z"/>
		<path fill="#3C3836" d="M70.98,23.799l-0.217-0.758C41.856,26.02,24.934,29.9,0,44.682l0.224,0.74l2.554-0.08
			c-0.658,5.676-0.233,12.779-0.229,12.875l0.057,1.98c-3.019,8.547,0.02,15.379,2.599,21.633c0.019-7.725,0.331-14.021-1.849-22.02
			C3.293,58.639,2.9,50.588,3.521,45.318l3.223-0.104c4.703,0.16,9.565,0.391,14.249,0.408c-0.303,7.471,0.257,10.121,0.257,10.121
			c16.096,5.453,31.381,0.475,39.418-13.607c0,0-3.096-3.104-6.767-5.91L70.98,23.799z"/>
	</g>
</g>
</svg>
