<?xml version="1.0" encoding="utf-8"?>
<!-- Generator: Adobe Illustrator 16.0.0, SVG Export Plug-In . SVG Version: 6.00 Build 0)  -->
<!DOCTYPE svg PUBLIC "-//W3C//DTD SVG 1.1//EN" "http://www.w3.org/Graphics/SVG/1.1/DTD/svg11.dtd">
<svg version="1.1" id="Capa_1" xmlns="http://www.w3.org/2000/svg" xmlns:xlink="http://www.w3.org/1999/xlink" x="0px" y="0px"
	 width="150px" height="150px" viewBox="0 0 150 150" enable-background="new 0 0 150 150" xml:space="preserve">
<g>
	<g>
		<path fill="#FFFFFF" d="M75,150c-41.355,0-75-33.646-75-75S33.645,0,75,0c41.355,0,75,33.646,75,75S116.355,150,75,150z
			 M75,10.039C39.181,10.039,10.039,39.18,10.039,75c0,35.818,29.142,64.96,64.961,64.96s64.961-29.142,64.961-64.96
			C139.961,39.18,110.819,10.039,75,10.039z"/>
	</g>
	<g>
		<g>
			<g>
				<path fill="#FFFFFF" d="M35.716,34.329v5.962c8.407,0.08,23.292,1.56,33.173,10.156l0,0
					C60.642,34.329,35.716,34.329,35.716,34.329z"/>
				<path fill="#FFFFFF" d="M29.343,105.736c0,0,25.114-2.623,39.545,9.934V53.821c-14.432-12.556-39.545-9.933-39.545-9.933v61.619
					V105.736z"/>
			</g>
			<g>
				<path fill="#FFFFFF" d="M114.285,34.329v5.962c-8.408,0.08-23.293,1.56-33.173,10.156l0,0
					C89.357,34.329,114.285,34.329,114.285,34.329z"/>
				<path fill="#FFFFFF" d="M120.657,105.736c0,0-25.114-2.623-39.545,9.934V53.821c14.431-12.556,39.545-9.933,39.545-9.933v61.619
					V105.736z"/>
			</g>
		</g>
		<rect x="71.72" y="53.821" fill="#FFFFFF" width="6.561" height="61.849"/>
	</g>
</g>
</svg>
